HIERARCHY
ROOT Hips
{
	OFFSET 0.000000 0.000000 0.000000
	CHANNELS 6 Xposition Yposition Zposition Zrotation Yrotation Xrotation 
	JOINT Spine1
	{
		OFFSET -0.013727 5.003761 -0.053727
		CHANNELS 3 Zrotation Yrotation Xrotation
		JOINT Spine2
		{
			OFFSET -0.000000 7.125302 -0.029825
			CHANNELS 3 Zrotation Yrotation Xrotation
			JOINT Chest
			{
				OFFSET -0.000001 7.550064 -0.815971
				CHANNELS 3 Zrotation Yrotation Xrotation
				JOINT Neck1
				{
					OFFSET -0.181677 26.311296 -0.553349
					CHANNELS 3 Zrotation Yrotation Xrotation
					JOINT Neck2
					{
						OFFSET -0.000003 7.709399 2.302586
						CHANNELS 3 Zrotation Yrotation Xrotation
						JOINT Head
						{
							OFFSET -0.000005 6.128913 1.953709
							CHANNELS 3 Zrotation Yrotation Xrotation
							JOINT HeadEnd
							{
								OFFSET 0.003598 16.065403 -1.835379
								CHANNELS 3 Zrotation Yrotation Xrotation
								End Site
								{
									OFFSET 0.000000 0.000000 0.000000
								}
							}
							JOINT Jaw
							{
								OFFSET 0.002637 0.475591 3.094941
								CHANNELS 3 Zrotation Yrotation Xrotation
								End Site
								{
									OFFSET 0.000000 0.000000 0.000000
								}
							}
							JOINT LeftEye
							{
								OFFSET 3.206380 5.380207 7.586883
								CHANNELS 3 Zrotation Yrotation Xrotation
								End Site
								{
									OFFSET 0.000000 0.000000 0.000000
								}
							}
							JOINT RightEye
							{
								OFFSET -3.222440 5.361867 7.558232
								CHANNELS 3 Zrotation Yrotation Xrotation
								End Site
								{
									OFFSET 0.000000 0.000000 0.000000
								}
							}
						}
					}
				}
				JOINT LeftShoulder
				{
					OFFSET 1.621652 23.237164 5.113413
					CHANNELS 3 Zrotation Yrotation Xrotation
					JOINT LeftArm
					{
						OFFSET 14.919845 0.000000 -5.502326
						CHANNELS 3 Zrotation Yrotation Xrotation
						JOINT LeftForeArm
						{
							OFFSET 28.739309 0.000003 -0.002588
							CHANNELS 3 Zrotation Yrotation Xrotation
							JOINT LeftHand
							{
								OFFSET 27.093979 -0.000002 0.002608
								CHANNELS 3 Zrotation Yrotation Xrotation
								JOINT LeftHandThumb1
								{
									OFFSET 2.276480 -1.392046 3.191413
									CHANNELS 3 Zrotation Yrotation Xrotation
									JOINT LeftHandThumb2
									{
										OFFSET 4.012841 -1.828126 1.641655
										CHANNELS 3 Zrotation Yrotation Xrotation
										JOINT LeftHandThumb3
										{
											OFFSET 2.798517 0.000001 -0.000003
											CHANNELS 3 Zrotation Yrotation Xrotation
											JOINT LeftHandThumbEnd
											{
												OFFSET 3.180791 -0.000001 0.000003
												CHANNELS 3 Zrotation Yrotation Xrotation
												End Site
												{
													OFFSET 0.000000 0.000000 0.000000
												}
											}
										}
									}
								}
								JOINT LeftHandIndex1
								{
									OFFSET 3.247553 -0.531998 2.296169
									CHANNELS 3 Zrotation Yrotation Xrotation
									JOINT LeftHandIndex2
									{
										OFFSET 6.364580 0.012062 0.178600
										CHANNELS 3 Zrotation Yrotation Xrotation
										JOINT LeftHandIndex3
										{
											OFFSET 3.662367 0.000001 -0.000000
											CHANNELS 3 Zrotation Yrotation Xrotation
											JOINT LeftHandIndex4
											{
												OFFSET 2.329243 0.000002 0.000004
												CHANNELS 3 Zrotation Yrotation Xrotation
												JOINT LeftHandIndexEnd
												{
													OFFSET 2.759619 -0.180539 -0.113024
													CHANNELS 3 Zrotation Yrotation Xrotation
													End Site
													{
														OFFSET 0.000000 0.000000 0.000000
													}
												}
											}
										}
									}
								}
								JOINT LeftHandMiddle1
								{
									OFFSET 3.163499 0.240982 1.000332
									CHANNELS 3 Zrotation Yrotation Xrotation
									JOINT LeftHandMiddle2
									{
										OFFSET 6.190778 -0.259277 -1.002548
										CHANNELS 3 Zrotation Yrotation Xrotation
										JOINT LeftHandMiddle3
										{
											OFFSET 4.356522 -0.000006 0.000000
											CHANNELS 3 Zrotation Yrotation Xrotation
											JOINT LeftHandMiddle4
											{
												OFFSET 2.996875 -0.000006 0.000001
												CHANNELS 3 Zrotation Yrotation Xrotation
												JOINT LeftHandMiddleEnd
												{
													OFFSET 2.304294 -0.294571 -0.031740
													CHANNELS 3 Zrotation Yrotation Xrotation
													End Site
													{
														OFFSET 0.000000 0.000000 0.000000
													}
												}
											}
										}
									}
								}
								JOINT LeftHandRing1
								{
									OFFSET 2.882641 -0.053650 -0.322543
									CHANNELS 3 Zrotation Yrotation Xrotation
									JOINT LeftHandRing2
									{
										OFFSET 5.854543 -0.486203 -1.373841
										CHANNELS 3 Zrotation Yrotation Xrotation
										JOINT LeftHandRing3
										{
											OFFSET 4.350580 0.000001 0.000004
											CHANNELS 3 Zrotation Yrotation Xrotation
											JOINT LeftHandRing4
											{
												OFFSET 2.651325 0.000008 0.000003
												CHANNELS 3 Zrotation Yrotation Xrotation
												JOINT LeftHandRingEnd
												{
													OFFSET 1.936111 0.077685 -0.000070
													CHANNELS 3 Zrotation Yrotation Xrotation
													End Site
													{
														OFFSET 0.000000 0.000000 0.000000
													}
												}
											}
										}
									}
								}
								JOINT LeftHandPinky1
								{
									OFFSET 2.865499 -0.310004 -1.600378
									CHANNELS 3 Zrotation Yrotation Xrotation
									JOINT LeftHandPinky2
									{
										OFFSET 5.087852 -1.331141 -1.771231
										CHANNELS 3 Zrotation Yrotation Xrotation
										JOINT LeftHandPinky3
										{
											OFFSET 3.070975 0.000003 0.000001
											CHANNELS 3 Zrotation Yrotation Xrotation
											JOINT LeftHandPinky4
											{
												OFFSET 1.549668 0.000001 0.000001
												CHANNELS 3 Zrotation Yrotation Xrotation
												JOINT LeftHandPinkyEnd
												{
													OFFSET 1.944895 -0.157802 0.057219
													CHANNELS 3 Zrotation Yrotation Xrotation
													End Site
													{
														OFFSET 0.000000 0.000000 0.000000
													}
												}
											}
										}
									}
								}
							}
						}
					}
				}
				JOINT RightShoulder
				{
					OFFSET -1.380118 23.180307 5.214157
					CHANNELS 3 Zrotation Yrotation Xrotation
					JOINT RightArm
					{
						OFFSET -15.037197 0.000012 -5.545604
						CHANNELS 3 Zrotation Yrotation Xrotation
						JOINT RightForeArm
						{
							OFFSET -28.736639 0.000002 -0.002597
							CHANNELS 3 Zrotation Yrotation Xrotation
							JOINT RightHand
							{
								OFFSET -27.133617 -0.000001 0.002613
								CHANNELS 3 Zrotation Yrotation Xrotation
								JOINT RightHandThumb1
								{
									OFFSET -2.274037 -1.383990 3.163128
									CHANNELS 3 Zrotation Yrotation Xrotation
									JOINT RightHandThumb2
									{
										OFFSET -4.011429 -1.827468 1.640914
										CHANNELS 3 Zrotation Yrotation Xrotation
										JOINT RightHandThumb3
										{
											OFFSET -2.794935 -0.000004 -0.000004
											CHANNELS 3 Zrotation Yrotation Xrotation
											JOINT RightHandThumbEnd
											{
												OFFSET -3.183856 0.000003 0.000000
												CHANNELS 3 Zrotation Yrotation Xrotation
												End Site
												{
													OFFSET 0.000000 0.000000 0.000000
												}
											}
										}
									}
								}
								JOINT RightHandIndex1
								{
									OFFSET -3.253270 -0.520059 2.282866
									CHANNELS 3 Zrotation Yrotation Xrotation
									JOINT RightHandIndex2
									{
										OFFSET -6.341918 0.012473 0.178265
										CHANNELS 3 Zrotation Yrotation Xrotation
										JOINT RightHandIndex3
										{
											OFFSET -3.654874 -0.000009 -0.000001
											CHANNELS 3 Zrotation Yrotation Xrotation
											JOINT RightHandIndex4
											{
												OFFSET -2.327586 -0.000000 0.000001
												CHANNELS 3 Zrotation Yrotation Xrotation
												JOINT RightHandIndexEnd
												{
													OFFSET -2.761789 -0.180657 -0.113079
													CHANNELS 3 Zrotation Yrotation Xrotation
													End Site
													{
														OFFSET 0.000000 0.000000 0.000000
													}
												}
											}
										}
									}
								}
								JOINT RightHandMiddle1
								{
									OFFSET -3.168107 0.246593 1.001030
									CHANNELS 3 Zrotation Yrotation Xrotation
									JOINT RightHandMiddle2
									{
										OFFSET -6.180830 -0.258836 -1.000896
										CHANNELS 3 Zrotation Yrotation Xrotation
										JOINT RightHandMiddle3
										{
											OFFSET -4.348905 -0.000000 -0.000000
											CHANNELS 3 Zrotation Yrotation Xrotation
											JOINT RightHandMiddle4
											{
												OFFSET -3.000242 -0.000004 -0.000002
												CHANNELS 3 Zrotation Yrotation Xrotation
												JOINT RightHandMiddleEnd
												{
													OFFSET -2.302517 -0.294372 -0.031706
													CHANNELS 3 Zrotation Yrotation Xrotation
													End Site
													{
														OFFSET 0.000000 0.000000 0.000000
													}
												}
											}
										}
									}
								}
								JOINT RightHandRing1
								{
									OFFSET -2.885694 -0.067952 -0.308858
									CHANNELS 3 Zrotation Yrotation Xrotation
									JOINT RightHandRing2
									{
										OFFSET -5.854196 -0.486132 -1.373732
										CHANNELS 3 Zrotation Yrotation Xrotation
										JOINT RightHandRing3
										{
											OFFSET -4.338814 -0.000004 -0.000000
											CHANNELS 3 Zrotation Yrotation Xrotation
											JOINT RightHandRing4
											{
												OFFSET -2.654905 -0.000004 0.000004
												CHANNELS 3 Zrotation Yrotation Xrotation
												JOINT RightHandRingEnd
												{
													OFFSET -1.933570 0.077524 -0.000053
													CHANNELS 3 Zrotation Yrotation Xrotation
													End Site
													{
														OFFSET 0.000000 0.000000 0.000000
													}
												}
											}
										}
									}
								}
								JOINT RightHandPinky1
								{
									OFFSET -2.866430 -0.342798 -1.584145
									CHANNELS 3 Zrotation Yrotation Xrotation
									JOINT RightHandPinky2
									{
										OFFSET -5.091371 -1.332054 -1.772385
										CHANNELS 3 Zrotation Yrotation Xrotation
										JOINT RightHandPinky3
										{
											OFFSET -3.062666 -0.000006 -0.000000
											CHANNELS 3 Zrotation Yrotation Xrotation
											JOINT RightHandPinky4
											{
												OFFSET -1.546526 0.000006 -0.000002
												CHANNELS 3 Zrotation Yrotation Xrotation
												JOINT RightHandPinkyEnd
												{
													OFFSET -1.945122 -0.157721 0.057211
													CHANNELS 3 Zrotation Yrotation Xrotation
													End Site
													{
														OFFSET 0.000000 0.000000 0.000000
													}
												}
											}
										}
									}
								}
							}
						}
					}
				}
			}
		}
	}
	JOINT LeftLeg
	{
		OFFSET 10.043214 -8.434526 2.595655
		CHANNELS 3 Zrotation Yrotation Xrotation
		JOINT LeftShin
		{
			OFFSET -0.000001 -43.221752 -0.802913
			CHANNELS 3 Zrotation Yrotation Xrotation
			JOINT LeftFoot
			{
				OFFSET 0.000001 -42.155094 -3.481523
				CHANNELS 3 Zrotation Yrotation Xrotation
				JOINT LeftToeBase
				{
					OFFSET 0.000000 -5.059475 13.231529
					CHANNELS 3 Zrotation Yrotation Xrotation
					JOINT LeftToeEnd
					{
						OFFSET -0.009607 -1.647615 6.513017
						CHANNELS 3 Zrotation Yrotation Xrotation
						End Site
						{
							OFFSET 0.000000 0.000000 0.000000
						}
					}
				}
			}
		}
	}
	JOINT RightLeg
	{
		OFFSET -10.047277 -8.295260 2.620317
		CHANNELS 3 Zrotation Yrotation Xrotation
		JOINT RightShin
		{
			OFFSET 0.000001 -43.362209 -0.805556
			CHANNELS 3 Zrotation Yrotation Xrotation
			JOINT RightFoot
			{
				OFFSET 0.000002 -42.117393 -3.478398
				CHANNELS 3 Zrotation Yrotation Xrotation
				JOINT RightToeBase
				{
					OFFSET -0.000001 -5.079609 13.284196
					CHANNELS 3 Zrotation Yrotation Xrotation
					JOINT RightToeEnd
					{
						OFFSET 0.009532 -1.634383 6.460591
						CHANNELS 3 Zrotation Yrotation Xrotation
						End Site
						{
							OFFSET 0.000000 0.000000 0.000000
						}
					}
				}
			}
		}
	}
}
MOTION
Frames: 4
Frame Time: 0.033333
4.003122 99.110588 -0.403914 1.663638 -0.044795 2.000440 -0.825332 -0.069490 -4.038218 -0.830106 -0.314395 -6.251667 -2.236411 -2.175457 11.608229 -0.041756 2.682239 -3.102823 -0.145252 0.778034 -3.580334 6.413493 -2.533741 -15.503706 0.000077 -0.000022 0.000005 0.007513 0.115885 -0.015800 0.662377 -3.640829 -10.533459 -0.654691 3.886470 -10.522673 -12.461077 -5.668754 11.417267 -60.762821 4.450995 16.377224 0.208770 -42.538067 -0.175433 -2.161173 6.699294 -10.109433 -5.882101 9.861278 0.702590 -10.936858 -0.360575 7.156197 -0.000000 8.774811 -0.000001 -15.930044 18.623163 6.451021 -1.844031 2.498503 -2.507276 -10.163590 4.678939 4.621104 -20.975994 -0.000005 0.000002 -21.226255 2.451692 -3.593993 0.000001 -0.000007 -0.000001 -1.362680 2.240796 -0.746322 -21.334887 0.584908 3.008319 -13.821197 -0.000003 0.000001 -23.887131 -0.249079 -0.839481 -60.565907 2.616177 -1.251607 -0.294025 1.679686 0.833255 -14.218192 0.093215 1.300580 -34.212006 -0.287565 0.967169 -20.033178 0.964535 1.212842 -0.000001 -0.000000 -0.000002 -3.440386 0.788232 0.501655 -15.928169 -3.167308 2.999703 -6.338817 -0.000002 0.000003 -18.123411 3.648175 -4.905660 -0.000001 0.000001 -0.000002 17.169203 5.399711 15.118968 55.613247 22.142811 47.703121 0.214398 31.344276 0.021282 1.988819 -1.169199 3.362053 2.243538 -5.255032 -3.180155 14.282875 -0.826592 6.952498 -0.000003 -12.690591 0.000000 16.164846 -17.641970 2.565720 1.665666 -1.955920 -2.878298 4.727794 -4.170582 4.993920 11.020512 0.000004 -0.000000 12.109032 -3.735707 -2.866779 -0.000001 0.000000 0.000001 1.291984 -1.928547 -1.498090 14.800111 0.567469 3.865605 14.242551 -1.341734 -6.660648 19.631933 0.143926 -0.648241 50.141998 -0.590230 -6.427796 0.353028 -1.511149 -0.031941 20.222767 3.684306 2.316629 18.787243 0.000005 0.000002 10.751609 -0.479868 1.397905 -0.000001 -0.000000 0.000001 3.273804 0.305947 -0.580110 21.486788 11.830362 2.266132 8.162916 0.000001 0.000002 18.399052 -3.798978 -4.940566 0.000005 -0.000001 -0.000001 -0.683224 15.732394 -12.096150 0.009769 -0.140414 18.780722 -3.631753 0.004074 -8.407899 1.625982 -1.886748 -0.397790 0.000000 -0.000000 0.000002 0.177921 -9.718287 -14.062456 0.017716 -0.012542 22.376390 -0.324442 -1.766153 -10.625059 -1.427606 0.969025 -0.137136 0.000000 0.000000 -0.000001 
3.816970 99.115189 -0.516019 1.765492 0.076731 2.059110 -0.877401 -0.090175 -3.946455 -0.815948 -0.259528 -6.239225 -2.250612 -2.217211 11.604343 0.171232 2.646376 -2.884463 -0.149285 0.985955 -3.546020 6.477551 -2.534735 -15.431326 0.000077 -0.000023 0.000006 0.025025 0.143726 -0.007279 0.679454 -3.618032 -10.531516 -0.632770 3.916598 -10.517988 -12.412911 -5.735300 11.363750 -60.721909 4.464552 16.349030 0.294232 -42.760342 -0.230249 -2.318407 6.715891 -10.475933 -5.882101 9.861278 0.702590 -10.936859 -0.360574 7.156198 0.000000 8.774814 -0.000003 -15.899211 18.639086 6.478334 -1.844031 2.498501 -2.507276 -10.163589 4.678940 4.621104 -20.975994 -0.000003 0.000003 -21.226250 2.451691 -3.593994 0.000001 -0.000006 -0.000001 -1.362680 2.240796 -0.746321 -21.334887 0.584908 3.008321 -13.821197 -0.000003 0.000002 -23.887131 -0.249077 -0.839481 -60.638027 2.604129 -1.216510 -0.294025 1.679687 0.833255 -14.218194 0.093215 1.300580 -34.211998 -0.287562 0.967170 -20.033180 0.964536 1.212841 -0.000001 -0.000000 -0.000002 -3.440386 0.788233 0.501656 -15.928167 -3.167306 2.999703 -6.338818 -0.000001 0.000002 -18.123413 3.648177 -4.905662 -0.000000 0.000001 -0.000003 17.080576 5.398171 15.189995 55.796173 22.086561 47.281727 0.208728 31.527273 0.045966 2.075077 -1.108979 3.545449 2.243539 -5.255031 -3.180156 14.282877 -0.826593 6.952493 -0.000002 -12.690591 0.000000 16.150454 -17.645029 2.569417 1.665666 -1.955921 -2.878297 4.727793 -4.170583 4.993918 11.020511 0.000004 -0.000001 12.109030 -3.735709 -2.866780 -0.000001 0.000000 -0.000001 1.291983 -1.928548 -1.498087 14.800109 0.567468 3.865602 14.242553 -1.341735 -6.660648 19.631939 0.143926 -0.648244 50.067795 -0.552085 -6.448704 0.353028 -1.511150 -0.031940 20.222767 3.684306 2.316627 18.787245 0.000005 0.000000 10.751609 -0.479869 1.397904 -0.000001 -0.000000 0.000000 3.273804 0.305948 -0.580110 21.486794 11.830367 2.266130 8.162916 -0.000001 -0.000000 18.399054 -3.798978 -4.940568 0.000005 -0.000001 -0.000002 -0.706027 15.555758 -12.191730 -0.008663 -0.161797 18.651567 -3.787071 0.143581 -8.224704 1.619749 -1.892049 -0.468615 0.000000 -0.000000 0.000002 0.215695 -9.725701 -14.228574 0.006001 -0.035975 22.451941 -0.334762 -1.737194 -10.615314 -1.425441 0.964336 -0.262009 0.000000 0.000000 -0.000001 
3.636922 99.103470 -0.687913 1.840262 0.235837 2.157899 -0.901794 -0.102547 -3.867845 -0.819819 -0.259894 -6.248477 -2.249452 -2.234245 11.626252 0.386236 2.633101 -2.509895 -0.133677 1.191887 -3.528826 6.646589 -2.442222 -15.393543 0.000077 -0.000022 0.000006 0.030882 0.154031 0.004824 0.676131 -3.611007 -10.525549 -0.619400 3.929926 -10.526808 -12.337307 -5.762283 11.309139 -60.628628 4.420065 16.424709 0.394028 -42.969654 -0.266053 -2.467708 6.742298 -10.864098 -5.882101 9.861278 0.702590 -10.936858 -0.360575 7.156197 0.000001 8.774812 -0.000002 -15.901084 18.702185 6.513896 -1.844031 2.498502 -2.507275 -10.163590 4.678940 4.621104 -20.975996 -0.000004 0.000003 -21.226254 2.451692 -3.593994 0.000000 -0.000006 -0.000001 -1.362680 2.240798 -0.746321 -21.334887 0.584908 3.008318 -13.821197 -0.000003 0.000001 -23.887129 -0.249078 -0.839481 -60.688332 2.597725 -1.188694 -0.294024 1.679686 0.833256 -14.218194 0.093214 1.300580 -34.212006 -0.287563 0.967170 -20.033176 0.964533 1.212841 -0.000000 0.000000 -0.000002 -3.440386 0.788234 0.501654 -15.928169 -3.167308 2.999704 -6.338818 -0.000002 0.000001 -18.123413 3.648176 -4.905661 -0.000001 0.000001 -0.000002 17.021645 5.398303 15.226021 55.929813 22.024382 46.982834 0.132888 31.635429 0.038944 2.200289 -1.023297 3.473964 2.243540 -5.255033 -3.180157 14.282877 -0.826595 6.952497 -0.000002 -12.690587 0.000002 16.134119 -17.662283 2.575628 1.665665 -1.955920 -2.878297 4.727793 -4.170582 4.993918 11.020512 0.000002 0.000000 12.109034 -3.735710 -2.866779 0.000000 0.000000 0.000000 1.291984 -1.928548 -1.498088 14.800113 0.567466 3.865606 14.242551 -1.341735 -6.660648 19.631939 0.143925 -0.648243 49.995625 -0.560376 -6.457876 0.353029 -1.511149 -0.031939 20.222769 3.684303 2.316630 18.787245 0.000003 0.000000 10.751613 -0.479868 1.397904 -0.000001 0.000000 0.000001 3.273804 0.305947 -0.580110 21.486790 11.830360 2.266131 8.162917 -0.000001 0.000001 18.399050 -3.798983 -4.940566 0.000004 -0.000001 -0.000001 -0.726097 15.410580 -12.462600 -0.018413 -0.157919 18.691639 -3.953312 0.129827 -8.072056 1.614741 -1.893896 -0.474095 0.000000 -0.000000 0.000002 0.294263 -9.751016 -14.519317 -0.013936 -0.070192 22.613577 -0.431900 -1.759906 -10.606898 -1.417964 0.973134 -0.312524 -0.000000 -0.000000 -0.000001 
3.349708 99.066383 -0.826142 1.881840 0.355908 2.281174 -0.891453 -0.097471 -3.787018 -0.829200 -0.275346 -6.243163 -2.252665 -2.261955 11.626405 0.611853 2.619786 -2.070445 -0.104749 1.365811 -3.522705 6.841953 -2.313517 -15.311397 0.000077 -0.000023 0.000007 0.031391 0.162866 0.015050 0.668896 -3.602427 -10.531851 -0.613081 3.941330 -10.543418 -12.218700 -5.784510 11.225312 -60.592216 4.395012 16.542019 0.479338 -43.214195 -0.278270 -2.493486 6.709388 -11.249414 -5.882102 9.861278 0.702590 -10.936858 -0.360574 7.156197 0.000000 8.774812 -0.000002 -15.921351 18.750660 6.499154 -1.844031 2.498501 -2.507275 -10.163589 4.678939 4.621105 -20.975994 -0.000004 0.000001 -21.226254 2.451692 -3.593993 -0.000000 -0.000007 0.000000 -1.362681 2.240797 -0.746323 -21.334887 0.584909 3.008317 -13.821197 -0.000003 0.000001 -23.887131 -0.249079 -0.839482 -60.730274 2.579395 -1.179405 -0.294025 1.679687 0.833256 -14.218192 0.093215 1.300579 -34.212006 -0.287563 0.967166 -20.033178 0.964534 1.212840 -0.000000 0.000000 -0.000002 -3.440385 0.788232 0.501655 -15.928165 -3.167303 2.999703 -6.338818 -0.000001 0.000001 -18.123413 3.648176 -4.905661 -0.000001 0.000000 -0.000002 16.916265 5.414580 15.227857 56.083389 22.009174 46.754913 0.097507 31.642448 0.022541 2.304188 -1.014236 3.441972 2.243539 -5.255032 -3.180155 14.282875 -0.826593 6.952495 -0.000002 -12.690590 0.000001 16.107695 -17.690113 2.603739 1.665666 -1.955920 -2.878296 4.727795 -4.170584 4.993920 11.020513 0.000003 -0.000002 12.109032 -3.735708 -2.866779 -0.000000 -0.000000 -0.000001 1.291985 -1.928548 -1.498088 14.800113 0.567468 3.865603 14.242554 -1.341735 -6.660649 19.631937 0.143926 -0.648243 49.975685 -0.573986 -6.461233 0.353028 -1.511148 -0.031941 20.222769 3.684306 2.316627 18.787245 0.000004 -0.000002 10.751611 -0.479868 1.397902 -0.000001 0.000000 0.000000 3.273804 0.305946 -0.580110 21.486790 11.830360 2.266129 8.162916 -0.000000 0.000001 18.399054 -3.798976 -4.940568 0.000004 -0.000001 -0.000001 -0.641058 15.294693 -12.828595 -0.025962 -0.173156 18.921595 -4.196723 0.088854 -8.018676 1.612499 -1.891630 -0.439037 0.000000 -0.000000 0.000002 0.485386 -9.803315 -14.862052 -0.026963 -0.090009 22.861963 -0.607356 -1.776963 -10.672326 -1.413147 0.978530 -0.308325 0.000000 0.000000 -0.000001 
